# xmcd CD database file
#
# Track frame offsets:
#	150
#	15431
#	29515
#	47517
#	63987
#	79582
#	88941
#	101929
#	117881
#	143423
#	159462
#
# Disc length: 2318 seconds
#
# Revision: 4
# Processed by: cddbd v1.4PL0 Copyright (c) Steve Scherf et al.
# Submitted via: CDex 1.40Release
#
DISCID=83090c0b
DTITLE=Esclarecidos - Esclarecidos 2
DYEAR=1900
DGENRE=Blues
TTITLE0=Los pies frios
TTITLE1=Pipeline
TTITLE2=Saxofon night club
TTITLE3=Recorrerá tu piel
TTITLE4=Milu
TTITLE5=Dos españolas solas
TTITLE6=arponera
TTITLE7=Bajo la nieva
TTITLE8=Miles, miles, miles
TTITLE9=El dormia en un fotomaton
TTITLE10=En plan velas
EXTD=ID3G: 0
EXTT0=
EXTT1=
EXTT2=
EXTT3=
EXTT4=
EXTT5=
EXTT6=
EXTT7=
EXTT8=
EXTT9=
EXTT10=
PLAYORDER=
